<svg xmlns="http://www.w3.org/2000/svg" width="17" height="14" viewBox="0 0 17 14">
  <g id="Group_6057" data-name="Group 6057" transform="translate(-353 -39)">
    <path id="Path" d="M16.283,2.348,15.54,4.114q-.593,1.408-1.184,2.814l-.272.646.35-.245H7.019c-.341,0-.685-.013-1.028,0H5.976l.35.245c-.087-.243-.174-.486-.261-.731q-.315-.876-.629-1.752-.378-1.056-.758-2.112-.329-.916-.656-1.832C3.916.85,3.818.553,3.7.258L3.7.245A.371.371,0,0,0,3.348,0H.363A.352.352,0,0,0,0,.333.356.356,0,0,0,.363.666H3.348L3,.421c.087.243.174.486.261.731q.315.876.629,1.752.378,1.056.758,2.112.329.916.656,1.832c.107.3.2.594.319.889l.005.013a.371.371,0,0,0,.35.245h7.415c.341,0,.685.012,1.028,0h.015a.373.373,0,0,0,.35-.245l.743-1.766q.593-1.408,1.184-2.814l.272-.646a.332.332,0,0,0-.254-.409.377.377,0,0,0-.446.233Z" transform="translate(353 39)" fill="#fff"/>
    <path id="Path-2" data-name="Path" d="M1.037.164Q.6.893.171,1.621c-.041.071-.084.14-.124.21a.34.34,0,0,0,.308.507H8.5c.375,0,.752.008,1.129,0h.016A.35.35,0,0,0,10,2a.353.353,0,0,0-.356-.337H1.5c-.375,0-.754-.015-1.129,0H.354c.1.168.2.338.308.507q.432-.73.866-1.457c.041-.071.084-.14.124-.21A.332.332,0,0,0,1.524.043a.373.373,0,0,0-.487.121Z" transform="translate(358 47.083)" fill="#fff"/>
    <path id="Path-3" data-name="Path" d="M0,1.48a1.515,1.515,0,0,0,1.046,1.4,1.626,1.626,0,0,0,1.709-.431A1.437,1.437,0,0,0,2.911.714,1.626,1.626,0,0,0,1.241.029,1.521,1.521,0,0,0,0,1.48a.35.35,0,0,0,.356.337A.353.353,0,0,0,.711,1.48c0-.027,0-.056,0-.082a.238.238,0,0,1,0-.035c.005-.067,0,.022,0,.02a.624.624,0,0,1,.043-.165c.005-.013.016-.071.028-.074s-.032.062-.012.029a.42.42,0,0,0,.02-.04A1.517,1.517,0,0,1,.884.988C.918.94.836,1.041.893.978.911.96.928.94.948.921S.987.884,1.007.867L1.033.845C1.046.835,1.1.812,1.051.83s-.011.008,0,0L1.092.8a.684.684,0,0,1,.06-.034c.027-.015.055-.027.084-.04.009-.005.046-.022,0,0s.018-.005.023-.007a1.148,1.148,0,0,1,.149-.04L1.457.674c.039-.008-.034,0-.034,0,.032,0,.066-.007.1-.007a1.507,1.507,0,0,1,.174.005c.066.005-.068-.012.014,0,.032.005.062.013.094.02s.053.015.08.024a.425.425,0,0,1,.044.015c0,.005-.066-.032-.03-.012s.1.05.155.081l.039.025c.012.008.039.015,0,0s-.012-.01,0,0l.036.029A1.55,1.55,0,0,1,2.25.98c.053.056-.025-.039.009.01.014.022.03.042.044.064s.028.045.041.067l.016.03c.034.061.007-.005,0-.008.021.007.044.128.052.15l.016.067c.014.064,0-.02,0-.022s.005.047.005.057a1.1,1.1,0,0,1,0,.153.392.392,0,0,0,0,.047c0,.034-.021.029,0-.02a.5.5,0,0,0-.02.089c-.012.047-.032.093-.046.14s.032-.057.009-.019a.161.161,0,0,0-.014.03c-.014.027-.028.052-.044.077s-.028.044-.044.066c-.048.069.034-.034-.007.012a1.314,1.314,0,0,1-.121.119c-.007.007-.05.05-.062.05s.073-.047.016-.013l-.028.019c-.05.03-.1.056-.153.081s.064-.02-.012.005l-.078.025-.082.02-.036.007c-.078.017.057,0,.011,0a1.509,1.509,0,0,1-.174.007c-.028,0-.057,0-.087-.005-.011,0-.053-.005,0,0s-.012,0-.025-.005a1.4,1.4,0,0,1-.183-.05c-.011,0-.046-.02,0,0l-.021-.01c-.028-.013-.055-.027-.082-.042s-.052-.032-.078-.049c-.043-.025.005.013.016.013-.007,0-.03-.024-.036-.029A1.28,1.28,0,0,1,.911,1.99S.88,1.961.88,1.956s.043.057.014.015C.877,1.946.859,1.922.843,1.9S.809,1.838.793,1.81c-.037-.069.018.054-.011-.022a1.172,1.172,0,0,1-.052-.175.1.1,0,0,0-.007-.034c.027.056.005.047,0,.008A1.058,1.058,0,0,1,.72,1.481a.35.35,0,0,0-.356-.337A.353.353,0,0,0,0,1.48Z" transform="translate(364.422 50.037)" fill="#fff"/>
    <path id="Path-4" data-name="Path" d="M0,1.48a1.515,1.515,0,0,0,1.046,1.4,1.626,1.626,0,0,0,1.709-.431A1.437,1.437,0,0,0,2.911.714,1.626,1.626,0,0,0,1.241.029,1.519,1.519,0,0,0,0,1.48a.35.35,0,0,0,.356.337A.353.353,0,0,0,.711,1.48c0-.027,0-.056,0-.082a.238.238,0,0,1,0-.035c.005-.067,0,.022,0,.02a.624.624,0,0,1,.043-.165c.005-.013.016-.071.028-.074s-.032.062-.012.029a.42.42,0,0,0,.02-.04A1.517,1.517,0,0,1,.884.988C.918.94.836,1.041.893.978.911.96.928.94.948.921S.987.884,1.007.867L1.033.845C1.046.835,1.1.812,1.051.83s-.011.008,0,0L1.092.8a.684.684,0,0,1,.06-.034c.027-.015.055-.027.084-.04.009-.005.046-.022,0,0s.018-.005.023-.007a1.148,1.148,0,0,1,.149-.04L1.457.674c.039-.008-.034,0-.034,0,.032,0,.066-.007.1-.007a1.507,1.507,0,0,1,.174.005c.066.005-.068-.012.014,0,.032.005.062.013.094.02s.053.015.08.024a.425.425,0,0,1,.044.015c0,.005-.066-.032-.03-.012s.1.05.155.081l.039.025c.012.008.039.015,0,0s-.012-.01,0,0l.036.029A1.55,1.55,0,0,1,2.25.98c.053.056-.025-.039.009.01.014.022.03.042.044.064s.028.045.041.067l.016.03c.034.061.007-.005,0-.008.021.007.044.128.052.15l.016.067c.014.064,0-.02,0-.022s.005.047.005.057a1.1,1.1,0,0,1,0,.153.392.392,0,0,0,0,.047c0,.034-.021.029,0-.02a.5.5,0,0,0-.02.089c-.012.047-.032.093-.046.14s.032-.057.009-.019a.161.161,0,0,0-.014.03c-.014.027-.028.052-.044.077s-.028.044-.044.066c-.048.069.034-.034-.007.012a1.314,1.314,0,0,1-.121.119c-.007.007-.05.05-.062.05s.073-.047.016-.013l-.028.019c-.05.03-.1.056-.153.081s.064-.02-.012.005l-.078.025-.082.02-.036.007c-.078.017.057,0,.011,0a1.509,1.509,0,0,1-.174.007c-.028,0-.057,0-.087-.005-.011,0-.053-.005,0,0s-.012,0-.025-.005a1.4,1.4,0,0,1-.183-.05c-.011,0-.046-.02,0,0l-.021-.01c-.028-.013-.055-.027-.082-.042s-.052-.032-.078-.049c-.043-.025.005.013.016.013-.007,0-.03-.024-.036-.029A1.28,1.28,0,0,1,.911,1.99S.88,1.961.88,1.956s.043.057.014.015C.877,1.946.859,1.922.843,1.9S.809,1.838.793,1.81c-.037-.069.018.054-.011-.022a1.172,1.172,0,0,1-.052-.175.1.1,0,0,0-.007-.034c.027.056.005.047,0,.008A1.058,1.058,0,0,1,.72,1.481a.35.35,0,0,0-.356-.337A.351.351,0,0,0,0,1.48Z" transform="translate(358.291 50.037)" fill="#fff"/>
    <path id="Path-5" data-name="Path" d="M.1.574l1.807,1.71.254.241a.376.376,0,0,0,.5,0L4.473.814,4.727.574a.327.327,0,0,0,0-.476.378.378,0,0,0-.5,0L2.417,1.807l-.254.241h.5L.859.338.6.1A.374.374,0,0,0,.1.1.33.33,0,0,0,.1.574Z" transform="translate(360.995 42)" fill="#fff"/>
    <path id="Path-6" data-name="Path" d="M1,4.678V.322C1,.153.77-.008.5,0S0,.142,0,.322V4.678c0,.169.23.33.5.322s.5-.14.5-.322Z" transform="translate(363 39)" fill="#fff"/>
  </g>
</svg>
